<svg width="643" height="144" viewBox="0 0 643 144" fill="none" xmlns="http://www.w3.org/2000/svg">
<path fill-rule="evenodd" clip-rule="evenodd" d="M288.975 21.0336C289.034 27.7532 283.604 33.2483 276.845 33.3073C270.086 33.3664 264.559 27.9669 264.5 21.2474C264.44 14.5278 269.871 9.03275 276.63 8.97369C283.389 8.91463 288.916 14.3141 288.975 21.0336ZM198.277 133.909V70.3142C198.277 69.9052 197.969 69.5984 197.557 69.5984H176.269C175.859 69.5984 175.55 69.2917 175.55 68.8828V48.8434C175.55 48.4344 175.859 48.1277 176.269 48.1277H197.557C197.969 48.1277 198.277 47.821 198.277 47.4119V35.0407C198.277 27.168 200.539 21.0335 205.064 16.5348C209.59 12.0361 215.76 9.78685 223.678 9.78685H245.788C246.2 9.78685 246.509 10.0936 246.509 10.5026V29.2129C246.509 29.6218 246.2 29.9285 245.788 29.9285H228.923C227.175 29.9285 225.427 30.6442 224.398 31.9734C223.781 32.7913 223.472 33.7115 223.472 34.7339V47.4119C223.472 47.821 223.781 48.1277 224.193 48.1277H289.186C289.598 48.1277 289.907 48.4344 289.907 48.8434V133.909C289.907 134.317 289.598 134.625 289.186 134.625H264.3C263.888 134.625 263.579 134.317 263.579 133.909V70.3142C263.579 69.9052 263.271 69.5984 262.859 69.5984H225.324C224.912 69.5984 224.603 69.9052 224.603 70.3142V133.909C224.603 134.317 224.295 134.625 223.884 134.625H198.997C198.585 134.625 198.277 134.215 198.277 133.909ZM454.764 48.2379H475.537C476.051 48.2379 476.565 48.6468 476.565 49.2603V68.4818C476.565 68.993 476.153 69.5042 475.537 69.5042H454.764V133.508C454.764 134.019 454.352 134.53 453.735 134.53H429.26C428.745 134.53 428.231 134.122 428.231 133.508V69.5042H410.954C410.44 69.5042 409.926 69.0953 409.926 68.4818V49.2603C409.926 48.749 410.337 48.2379 410.954 48.2379H428.231V20.019C428.231 19.5078 428.642 18.9966 429.26 18.9966H453.735C454.249 18.9966 454.764 19.4056 454.764 20.019V48.2379ZM318 133.826C318 134.338 318.412 134.849 319.028 134.849H343.298C343.813 134.849 344.326 134.439 344.326 133.826V85.5677C344.326 82.5005 345.149 79.7399 346.589 77.1839C348.131 74.6278 350.086 72.583 352.656 71.0493C355.228 69.5158 358.107 68.8 361.398 68.8C364.586 68.8 367.465 69.5158 370.036 71.0493C372.607 72.583 374.664 74.6278 376.104 77.1839C377.647 79.7399 378.366 82.5005 378.366 85.5677V133.724C378.366 134.235 378.777 134.746 379.395 134.746H403.664C404.178 134.746 404.693 134.338 404.693 133.724V84.852C404.693 77.5929 402.945 71.0493 399.551 65.2215C396.157 59.3938 391.221 54.6906 384.845 51.2144C378.469 47.7382 370.653 46 361.604 46C352.656 46 344.841 47.7382 338.362 51.2144C331.78 54.6906 326.741 59.3938 323.245 65.2215C319.748 71.0493 318 77.5929 318 84.852V133.826ZM525.196 134.62C516.454 134.62 508.536 132.677 501.543 128.791C494.55 124.907 488.997 119.692 484.986 112.944C480.976 106.196 478.919 98.6302 478.919 90.2464C478.919 81.7602 480.976 74.1944 484.986 67.5486C488.997 60.9028 494.55 55.5863 501.543 51.7011C508.536 47.8159 516.352 45.8733 525.196 45.8733C533.937 45.8733 541.753 47.8159 548.745 51.7011C555.636 55.5863 561.19 60.9028 565.2 67.5486C569.211 74.1944 571.267 81.7602 571.267 90.2464C571.267 98.6302 569.211 106.196 565.2 112.944C561.19 119.692 555.636 125.008 548.643 128.791C541.65 132.677 533.835 134.62 525.196 134.62ZM525.196 112.228C529.309 112.228 532.806 111.206 535.891 109.264C538.873 107.32 541.239 104.662 542.884 101.288C544.529 98.0168 545.352 94.2338 545.352 90.0419C545.352 85.9521 544.529 82.2715 542.884 78.9997C541.239 75.7279 538.873 73.0696 535.891 71.0248C532.908 69.0822 529.309 68.0598 525.196 68.0598C521.083 68.0598 517.483 69.0822 514.501 71.0248C511.416 72.9674 509.05 75.6257 507.405 78.9997C505.759 82.2715 504.937 85.9521 504.937 90.0419C504.937 94.2338 505.759 98.0168 507.405 101.288C509.05 104.56 511.416 107.218 514.501 109.264C517.483 111.308 521.083 112.228 525.196 112.228ZM603.875 129.206C611.074 133.09 619.3 135.034 628.659 135.034V134.829H641.103C641.617 134.829 642.131 134.42 642.131 133.806V113.358C642.131 112.847 641.72 112.336 641.103 112.336H629.79C625.266 112.336 621.357 111.416 618.066 109.473C614.776 107.633 612.308 104.975 610.457 101.702C608.708 98.4306 607.783 94.75 607.783 90.558C607.783 86.4683 608.605 82.6853 610.457 79.4136C612.308 76.1419 614.776 73.5858 618.066 71.6432C621.357 69.7006 625.266 68.7804 629.79 68.7804H641.103C641.617 68.7804 642.131 68.3715 642.131 67.758V47.1051C642.131 46.5939 641.72 46.0827 641.103 46.0827H628.659C619.403 46.0827 611.074 48.1276 603.875 52.0128C596.677 55.8979 591.02 61.2145 586.804 67.8602C582.587 74.506 580.531 82.0719 580.531 90.6602C580.531 99.2486 582.587 106.814 586.804 113.46C590.917 120.106 596.677 125.32 603.875 129.206Z" fill="#060235"/>
<path d="M89.3609 64.1824C98.2051 55.2874 98.2051 40.9735 89.6694 32.1807L62.623 4.98431C56.0413 -1.66144 45.346 -1.66144 38.7644 4.98431C32.1827 11.63 32.1827 22.3654 38.7644 28.909L81.648 71.9529L89.3609 64.1824Z" fill="#A5B0FF"/>
<path d="M113.324 55.6885L89.3633 31.7638C98.3102 40.7611 98.3102 55.1773 89.3633 64.1746L38.6638 115.091C32.0821 121.737 32.0821 132.473 38.6638 139.016C45.2455 145.661 55.9407 145.661 62.5224 139.016L113.221 88.0993C122.169 79.2042 122.169 64.6858 113.324 55.6885Z" fill="#3753FF"/>
<path d="M16.8655 88.6196C26.1801 88.6196 33.731 81.0667 33.731 71.7496C33.731 62.4326 26.1801 54.8797 16.8655 54.8797C7.55095 54.8797 0 62.4326 0 71.7496C0 81.0667 7.55095 88.6196 16.8655 88.6196Z" fill="#3753FF"/>
</svg>
