<svg xmlns="http://www.w3.org/2000/svg" xmlns:xlink="http://www.w3.org/1999/xlink" id="Capa_1" x="0px" y="0px" viewBox="0 0 167.8 71.5" style="enable-background:new 0 0 167.8 71.5;" xml:space="preserve">
<style type="text/css">
	.st0{fill:#0055B8;}
</style>
<g>
	<path class="st0" d="M78.6,40.5l-7.7,7.7c-0.1,0.1-0.1,0.3,0,0.4l19.5,19.5c0,0,0.1,0.1,0.2,0.1H106c0.2,0,0.3-0.3,0.2-0.4L79,40.5   C78.9,40.4,78.7,40.4,78.6,40.5"></path>
	<path class="st0" d="M105.9,3.6l-15.4,0c-0.1,0-0.1,0-0.2,0.1L71,23c-0.1,0.1-0.1,0.3,0,0.4l7.7,7.7c0.1,0.1,0.3,0.1,0.4,0l27-27   C106.3,3.9,106.2,3.6,105.9,3.6"></path>
	<path class="st0" d="M58.7,11.1l-11-11c-0.2-0.2-0.4,0-0.4,0.2v27.1v4.1H11.8c-0.1,0-0.3-0.1-0.3-0.3V3.9c0-0.1-0.1-0.3-0.3-0.3   H0.3C0.1,3.7,0,3.8,0,3.9v64c0,0.1,0.1,0.3,0.3,0.3h11.1c0.1,0,0.3-0.1,0.3-0.3V43.3c0-0.1,0.1-0.3,0.3-0.3h35.4v2.7v25.5   c0,0.2,0.3,0.3,0.4,0.2l11-11c0,0,0.1-0.1,0.1-0.2v-49C58.8,11.2,58.7,11.1,58.7,11.1"></path>
	<rect x="105.1" y="29.9" class="st0" width="1.2" height="10.8"></rect>
	<polygon class="st0" points="112.6,40.8 111.4,40.8 111.4,31 108,31 108,29.9 116,29.9 116,31 112.6,31  "></polygon>
	<polygon class="st0" points="127.5,40.8 121.1,40.8 121.1,29.9 127.2,29.9 127.2,31 122.2,31 122.2,34.6 126.8,34.6 126.8,35.6    122.2,35.6 122.2,39.7 127.5,39.7  "></polygon>
	<path class="st0" d="M131.7,37.6l-2.4,3.2l-1.2-0.1l2.9-3.9l-2.7-3.7l1.3-0.1c0.9,1.3,1.6,2.3,2.1,3c0.3-0.5,1.1-1.5,2.2-3l1.2,0.1   l-2.7,3.7l2.9,3.9l-1.3,0.1L131.7,37.6z"></path>
	<path class="st0" d="M137.5,44.4h-1.1V33.6c1.1-0.5,2.2-0.7,3.4-0.7c1,0,1.8,0.3,2.3,0.9c0.5,0.6,0.7,1.6,0.7,3   c0,0.8-0.1,1.5-0.2,2.1c-0.1,0.5-0.4,1-0.7,1.3c-0.3,0.3-0.7,0.5-1.1,0.6c-0.4,0.1-1,0.2-1.6,0.2c-0.6,0-1.2-0.1-1.8-0.3V44.4z    M137.5,39.7c0.5,0.2,1.1,0.3,1.7,0.3c1,0,1.7-0.2,2-0.7c0.3-0.4,0.5-1.3,0.5-2.5c0-1.1-0.1-1.8-0.4-2.3c-0.3-0.5-0.8-0.7-1.6-0.7   c-0.7,0-1.5,0.1-2.2,0.4V39.7z"></path>
	<path class="st0" d="M145.2,37.2c0,0.6,0.1,1.1,0.2,1.4c0.1,0.4,0.3,0.7,0.5,0.9c0.2,0.2,0.5,0.3,0.8,0.4c0.3,0.1,0.6,0.1,1.1,0.1   c0.7,0,1.4-0.1,2.2-0.3l0.2,0.9c-0.7,0.3-1.6,0.4-2.6,0.4c-1.3,0-2.2-0.3-2.7-0.9c-0.5-0.6-0.8-1.6-0.8-3.1c0-1.4,0.3-2.5,0.9-3.1   c0.6-0.6,1.4-1,2.6-1c1,0,1.8,0.3,2.2,0.8c0.4,0.5,0.6,1.4,0.6,2.5c0,0.4,0,0.7,0,0.9H145.2z M145.2,36.3h4.1V36   c0-0.7-0.1-1.3-0.4-1.6c-0.3-0.4-0.8-0.5-1.5-0.5c-0.8,0-1.4,0.2-1.7,0.6C145.4,34.9,145.3,35.5,145.2,36.3"></path>
	<path class="st0" d="M152.9,40.8h-1.1v-7.1c0.9-0.5,1.9-0.7,3-0.7c0.4,0,0.7,0,0.9,0.1l-0.1,1c-0.3,0-0.6,0-0.8,0   c-0.9,0-1.5,0.1-2,0.3V40.8z"></path>
	<path class="st0" d="M161.4,40.9c-0.8,0-1.4-0.1-1.8-0.2c-0.4-0.1-0.8-0.3-1-0.5c-0.2-0.2-0.3-0.5-0.4-0.8   c-0.1-0.3-0.1-0.8-0.1-1.4v-3.9h-1.3v-1l1.3-0.1c0-1.3,0-2,0-2.1h1v2.1h2v1h-2V38c0,0.7,0.1,1.2,0.2,1.4c0.2,0.3,0.9,0.5,2,0.6   L161.4,40.9z"></path>
	<path class="st0" d="M162.5,40.6l0.2-0.9c0.7,0.2,1.4,0.3,2.3,0.3c0.7,0,1.2-0.1,1.4-0.4c0.2-0.2,0.4-0.5,0.4-0.9   c0-0.3-0.1-0.5-0.2-0.7c-0.2-0.2-0.5-0.3-1.1-0.5l-1.2-0.4c-1.1-0.3-1.7-1-1.7-2c0-1.5,0.9-2.2,2.8-2.2c0.8,0,1.5,0.1,2.1,0.2   l-0.1,0.9c-0.6-0.1-1.3-0.2-2-0.2c-0.7,0-1.1,0.1-1.3,0.3c-0.2,0.2-0.3,0.5-0.3,0.9c0,0.3,0.1,0.5,0.2,0.7c0.1,0.2,0.4,0.3,0.9,0.5   l1.2,0.4c0.6,0.2,1.1,0.4,1.4,0.7c0.3,0.3,0.4,0.8,0.4,1.4c0,1.5-1,2.3-2.9,2.3C164,41,163.1,40.8,162.5,40.6"></path>
</g>
</svg>