<?xml version="1.0" encoding="UTF-8"?> <svg xmlns="http://www.w3.org/2000/svg" width="180" height="46" viewBox="0 0 180 46" fill="none"> <path d="M44.4687 22.7438C44.4687 34.7421 34.7421 44.4687 22.7438 44.4687C10.7454 44.4687 1.01887 34.7421 1.01887 22.7438C1.01887 10.7454 10.7454 1.01887 22.7438 1.01887C34.7421 1.01887 44.4687 10.7454 44.4687 22.7438Z" stroke="#336DFF" stroke-width="2.03774"></path> <path d="M32.0722 18.6539C32.0722 17.4617 31.8335 16.2813 31.3697 15.1799C30.9059 14.0785 30.2261 13.0777 29.3692 12.2348C28.5123 11.3918 27.4949 10.7232 26.3753 10.267C25.2557 9.81085 24.0556 9.5761 22.8438 9.57617H19.7976L29.0561 25.3529C30.0061 24.505 30.7652 23.471 31.2846 22.3173C31.8041 21.1636 32.0723 19.9157 32.0722 18.6539V18.6539Z" fill="#336DFF"></path> <path d="M13.615 18.6543V35.8686H19.7864V27.212C17.9835 26.5898 16.4215 25.4324 15.316 23.8995C14.2106 22.3665 13.6162 20.5338 13.615 18.6543V18.6543Z" fill="#334D6E"></path> <path d="M35.2279 35.8671L29.0565 25.3545C27.4801 26.7733 25.4496 27.6063 23.3154 27.7098L28.13 35.9118L35.2279 35.8671Z" fill="#323C47"></path> <path d="M19.7978 9.57617H13.615V18.6539C13.6167 20.533 14.2114 22.3652 15.3168 23.8977C16.4222 25.4301 17.9839 26.5873 19.7864 27.2093V21.6986L23.3106 27.7076C25.4448 27.6042 27.4753 26.7712 29.0517 25.3523L19.7978 9.57617Z" fill="#336DFF"></path> <path d="M52.6201 9.60667H63.9623C66.5364 9.60667 68.5705 10.2502 70.0644 11.5373C71.5583 12.8013 72.3052 14.7434 72.3052 17.3635C72.3052 18.3748 72.1673 19.3286 71.8915 20.2249C71.6157 21.0983 71.225 21.8452 70.7194 22.4658C69.869 23.5 68.8807 23.9942 67.7546 23.9482L67.5822 24.3964C67.9499 24.6951 68.2257 25.0054 68.4096 25.3272C68.5934 25.626 68.8118 26.0971 69.0646 26.7407L72.8913 35.9109H67.6511L63.4797 25.3617H57.5845V35.9109H52.6201V9.60667ZM63.2728 21.0523C64.6059 21.0523 65.6171 20.7535 66.3066 20.156C67.0191 19.5584 67.3753 18.685 67.3753 17.5359C67.3753 16.4097 67.0191 15.5478 66.3066 14.9503C65.5941 14.3527 64.5829 14.0539 63.2728 14.0539H57.5845V21.0523H63.2728Z" fill="#192A3E"></path> <path d="M84.0536 36.2902C82.1 36.2902 80.3763 35.865 78.8824 35.0146C77.3885 34.1642 76.2278 32.9921 75.4004 31.4982C74.596 29.9813 74.1938 28.269 74.1938 26.3614C74.1938 24.5917 74.55 22.9369 75.2625 21.3971C75.998 19.8342 77.0897 18.5701 78.5376 17.6048C80.0086 16.6395 81.8012 16.1569 83.9157 16.1569C85.6624 16.1569 87.2713 16.5246 88.7422 17.2601C90.2131 17.9726 91.3967 19.0872 92.2931 20.6041C93.1894 22.098 93.6376 23.9597 93.6376 26.1891V27.1888H81.3646C81.2267 27.1888 80.8474 27.1888 80.2269 27.1888C79.6064 27.1888 79.1122 27.1543 78.7445 27.0854L78.6066 27.6025C78.7904 27.6485 78.9283 27.7404 79.0203 27.8783C79.1352 28.0162 79.2271 28.2116 79.2961 28.4644C79.4799 28.947 79.6293 29.2803 79.7443 29.4642C80.2039 30.3605 80.813 31.0615 81.5714 31.5671C82.3528 32.0498 83.2377 32.2911 84.226 32.2911C85.2832 32.2911 86.191 32.0268 86.9495 31.4982C87.7079 30.9466 88.248 30.2456 88.5698 29.3952H93.3273C92.7068 31.4407 91.6151 33.107 90.0522 34.3941C88.4894 35.6581 86.4898 36.2902 84.0536 36.2902ZM79.1582 24.224C79.5029 24.0171 79.8132 23.8792 80.089 23.8103C80.3648 23.7413 80.6751 23.7069 81.0198 23.7069H87.0184C87.3862 23.7069 87.7079 23.7413 87.9837 23.8103C88.2825 23.8792 88.6158 24.0171 88.9835 24.224L89.2593 23.7413C89.0984 23.6494 88.9835 23.569 88.9146 23.5C88.8456 23.4081 88.7881 23.3162 88.7422 23.2242C88.7192 23.1323 88.7077 23.0748 88.7077 23.0518C88.6158 22.6611 88.4319 22.2819 88.1561 21.9142C87.7194 21.2477 87.1448 20.742 86.4324 20.3973C85.7199 20.0296 84.927 19.8457 84.0536 19.8457C83.1802 19.8457 82.3873 20.0181 81.6748 20.3628C80.9853 20.7076 80.4223 21.2247 79.9856 21.9142C79.6868 22.2819 79.4914 22.6611 79.3995 23.0518C79.3995 23.0748 79.3765 23.1438 79.3306 23.2587C79.2846 23.3506 79.2271 23.4426 79.1582 23.5345C79.0892 23.6034 78.9858 23.6724 78.8479 23.7413L79.1582 24.224Z" fill="#192A3E"></path> <path d="M94.2221 16.5706H99.1864L102.358 26.258C102.565 26.9245 102.703 27.5221 102.772 28.0507C102.864 28.5793 102.933 29.1884 102.979 29.8779H103.392C103.392 29.74 103.415 29.4412 103.461 28.9815C103.507 28.4989 103.576 28.0392 103.668 27.6025C103.76 27.1429 103.875 26.6947 104.013 26.258L107.254 16.5706H112.218L105.047 35.9109H101.358L94.2221 16.5706Z" fill="#192A3E"></path> <path d="M122.671 36.2902C120.717 36.2902 118.993 35.865 117.5 35.0146C116.006 34.1642 114.845 32.9921 114.018 31.4982C113.213 29.9813 112.811 28.269 112.811 26.3614C112.811 24.5917 113.167 22.9369 113.88 21.3971C114.615 19.8342 115.707 18.5701 117.155 17.6048C118.626 16.6395 120.418 16.1569 122.533 16.1569C124.28 16.1569 125.888 16.5246 127.359 17.2601C128.83 17.9726 130.014 19.0872 130.91 20.6041C131.807 22.098 132.255 23.9597 132.255 26.1891V27.1888H119.982C119.844 27.1888 119.465 27.1888 118.844 27.1888C118.224 27.1888 117.729 27.1543 117.362 27.0854L117.224 27.6025C117.408 27.6485 117.546 27.7404 117.637 27.8783C117.752 28.0162 117.844 28.2116 117.913 28.4644C118.097 28.947 118.247 29.2803 118.361 29.4642C118.821 30.3605 119.43 31.0615 120.189 31.5671C120.97 32.0498 121.855 32.2911 122.843 32.2911C123.9 32.2911 124.808 32.0268 125.567 31.4982C126.325 30.9466 126.865 30.2456 127.187 29.3952H131.944C131.324 31.4407 130.232 33.107 128.669 34.3941C127.107 35.6581 125.107 36.2902 122.671 36.2902ZM117.775 24.224C118.12 24.0171 118.43 23.8792 118.706 23.8103C118.982 23.7413 119.292 23.7069 119.637 23.7069H125.636C126.003 23.7069 126.325 23.7413 126.601 23.8103C126.9 23.8792 127.233 24.0171 127.601 24.224L127.876 23.7413C127.716 23.6494 127.601 23.569 127.532 23.5C127.463 23.4081 127.405 23.3162 127.359 23.2242C127.336 23.1323 127.325 23.0748 127.325 23.0518C127.233 22.6611 127.049 22.2819 126.773 21.9142C126.337 21.2477 125.762 20.742 125.05 20.3973C124.337 20.0296 123.544 19.8457 122.671 19.8457C121.797 19.8457 121.004 20.0181 120.292 20.3628C119.603 20.7076 119.039 21.2247 118.603 21.9142C118.304 22.2819 118.109 22.6611 118.017 23.0518C118.017 23.0748 117.994 23.1438 117.948 23.2587C117.902 23.3506 117.844 23.4426 117.775 23.5345C117.706 23.6034 117.603 23.6724 117.465 23.7413L117.775 24.224Z" fill="#192A3E"></path> <path d="M134.966 16.5706H139.62V17.1911C139.62 17.5589 139.586 17.8576 139.517 18.0875C139.448 18.3173 139.31 18.5471 139.103 18.777L139.586 19.1217C140.321 18.0415 141.103 17.2831 141.93 16.8464C142.78 16.3867 143.769 16.1569 144.895 16.1569C147.883 16.1569 149.894 17.2371 150.928 19.3975C151.273 20.156 151.491 20.9259 151.583 21.7073C151.675 22.4888 151.721 23.5115 151.721 24.7756V35.9109H147.101V24.7066C147.101 22.845 146.78 21.5579 146.136 20.8455C145.584 20.2709 144.768 19.9836 143.688 19.9836C142.401 19.9836 141.424 20.3743 140.758 21.1557C140.367 21.6154 140.08 22.2359 139.896 23.0174C139.712 23.7758 139.62 24.7871 139.62 26.0512V35.9109H134.966V16.5706Z" fill="#192A3E"></path> <path d="M155.15 35.9109V16.5706H159.804V35.9109H155.15ZM157.494 14.4331C156.69 14.4331 156.012 14.1918 155.46 13.7092C154.909 13.2265 154.633 12.583 154.633 11.7786C154.633 11.0201 154.909 10.3881 155.46 9.88247C156.012 9.37684 156.69 9.12402 157.494 9.12402C158.276 9.12402 158.942 9.37684 159.494 9.88247C160.068 10.3881 160.356 11.0201 160.356 11.7786C160.356 12.56 160.08 13.2035 159.528 13.7092C158.977 14.1918 158.299 14.4331 157.494 14.4331Z" fill="#192A3E"></path> <path d="M170.106 36.2902C167.095 36.2902 165.084 35.2215 164.073 33.084C163.705 32.3256 163.475 31.5556 163.383 30.7742C163.291 29.9698 163.245 28.947 163.245 27.7059V16.5706H167.899V27.7404C167.899 28.7287 167.968 29.5331 168.106 30.1537C168.267 30.7512 168.508 31.2339 168.83 31.6016C169.336 32.1762 170.152 32.4635 171.278 32.4635C172.588 32.4635 173.576 32.0728 174.243 31.2913C174.633 30.8546 174.909 30.2571 175.07 29.4986C175.254 28.7172 175.346 27.683 175.346 26.3959V16.5706H180V35.9109H175.346V35.2904C175.346 34.9457 175.38 34.6584 175.449 34.4285C175.541 34.1757 175.679 33.9229 175.863 33.6701L175.38 33.3598C174.645 34.417 173.863 35.1755 173.036 35.6352C172.209 36.0718 171.232 36.2902 170.106 36.2902Z" fill="#192A3E"></path> </svg> 